<?xml version="1.0" encoding="UTF-8" standalone="no"?>
<!-- Created with Inkscape (http://www.inkscape.org/) -->

<svg
   width="210mm"
   height="297mm"
   viewBox="0 0 210 297"
   version="1.1"
   id="svg1"
   inkscape:version="1.4.2 (ebf0e940d0, 2025-05-08)"
   sodipodi:docname="yacht-mocha.svg"
   xmlns:inkscape="http://www.inkscape.org/namespaces/inkscape"
   xmlns:sodipodi="http://sodipodi.sourceforge.net/DTD/sodipodi-0.dtd"
   xmlns="http://www.w3.org/2000/svg"
   xmlns:svg="http://www.w3.org/2000/svg">
  <sodipodi:namedview
     id="namedview1"
     pagecolor="#505050"
     bordercolor="#eeeeee"
     borderopacity="1"
     inkscape:showpageshadow="0"
     inkscape:pageopacity="0"
     inkscape:pagecheckerboard="0"
     inkscape:deskcolor="#505050"
     inkscape:document-units="mm"
     inkscape:zoom="3.7629629"
     inkscape:cx="278.37107"
     inkscape:cy="207.68209"
     inkscape:window-width="1896"
     inkscape:window-height="2043"
     inkscape:window-x="26"
     inkscape:window-y="23"
     inkscape:window-maximized="0"
     inkscape:current-layer="g3" />
  <defs
     id="defs1" />
  <g
     inkscape:label="Layer 1"
     inkscape:groupmode="layer"
     id="layer1">
    <g
       id="g3"
       style="fill:#cdd6f4;fill-opacity:1">
      <path
         id="text1"
         style="font-weight:bold;font-size:35.8843px;font-family:'UbuntuMono Nerd Font';-inkscape-font-specification:'UbuntuMono Nerd Font, Bold';fill:#cdd6f4;fill-opacity:1;stroke-width:0.321737"
         d="m 76.268948,29.173877 c -1.117037,-0.0014 -2.152216,0.251709 -3.105881,0.759909 -0.935284,0.48507 -1.752761,1.213761 -2.451362,2.185355 -0.680222,0.948465 -1.213688,2.116497 -1.602158,3.505245 -0.38847,1.388748 -0.586107,2.975104 -0.591135,4.757944 -0.01014,3.58883 0.614422,6.356532 1.87247,8.303017 1.258051,1.946484 3.086118,2.921212 5.484999,2.924188 1.062099,0.0013 1.997,-0.147968 2.80358,-0.447967 0.824954,-0.32313 1.475164,-0.669733 1.95232,-1.039602 l -0.84124,-3.369871 c -0.348645,0.254258 -0.816602,0.508059 -1.403309,0.762023 -0.568391,0.253986 -1.292082,0.380278 -2.17106,0.379187 -1.519901,-0.0018 -2.616559,-0.651552 -3.290451,-1.949003 -0.655513,-1.320584 -0.980395,-3.20776 -0.973476,-5.662058 0.004,-1.412379 0.126377,-2.593275 0.367102,-3.542284 0.259046,-0.948985 0.582377,-1.700823 0.968497,-2.256036 0.404498,-0.578343 0.853807,-0.983339 1.348884,-1.214262 0.513457,-0.254055 1.03609,-0.380598 1.567136,-0.379939 0.769108,9.52e-4 1.446038,0.128979 2.031308,0.384405 0.603645,0.232287 1.115018,0.522189 1.535218,0.870018 L 80.659119,30.741638 80.08367,30.32426 c -0.237538,-0.185526 -0.539189,-0.359606 -0.904968,-0.522137 -0.365788,-0.16253 -0.79558,-0.301882 -1.289677,-0.418265 -0.475727,-0.13951 -1.015781,-0.209232 -1.620077,-0.209981 z M 40.695959,29.61595 c 0.689199,2.362549 1.40617,4.620878 2.150895,6.77511 0.7631,2.131099 1.645365,4.319862 2.646198,6.567027 l -0.02301,8.16226 3.406234,0.0042 0.02312,-8.197042 c 0.515934,-1.133896 0.995264,-2.232949 1.437756,-3.297478 0.442559,-1.087681 0.85783,-2.175185 1.245453,-3.262935 0.387619,-1.087749 0.756883,-2.186939 1.107945,-3.297887 0.351062,-1.110948 0.702473,-2.256674 1.053734,-3.437086 l -3.489235,-0.0043 c -0.203514,0.740672 -0.434998,1.574024 -0.693976,2.499856 -0.240668,0.925854 -0.499339,1.839848 -0.776566,2.742504 -0.258915,0.902678 -0.526416,1.759242 -0.803383,2.569282 -0.258652,0.810063 -0.489669,1.481337 -0.692606,2.013625 -0.545313,-1.436214 -1.072134,-3.011841 -1.580042,-4.725856 -0.507841,-1.737168 -0.970283,-3.439182 -1.386761,-5.106775 z m 18.458538,0.02291 c -0.777919,3.124805 -1.583601,6.434378 -2.417502,9.929572 -0.833832,3.472041 -1.65903,7.326688 -2.476707,11.562823 l 3.515443,0.0043 0.782834,-4.965674 4.532181,0.0056 0.783226,4.967619 3.625745,0.0045 C 66.76054,47.025267 65.992945,43.203528 65.197138,39.683157 64.419705,36.139655 63.63279,32.79322 62.835937,29.643307 Z m 23.623037,0.02932 -0.06061,21.498394 3.378932,0.0042 0.02673,-9.481815 4.504876,0.0056 -0.02673,9.481815 3.377839,0.0042 0.06061,-21.498395 -3.37784,-0.0042 -0.0239,8.473851 -4.504876,-0.0056 0.0239,-8.473853 z m 13.184826,0.01636 -0.0099,3.542004 4.47758,0.0056 -0.0506,17.956392 3.40514,0.0042 0.0506,-17.956391 4.47757,0.0056 0.01,-3.542003 z M 60.901014,33.8084 c 0.180838,0.810608 0.34375,1.586306 0.488159,2.327409 0.162789,0.717971 0.306792,1.436226 0.432949,2.154153 0.144552,0.694792 0.270602,1.401398 0.378443,2.119302 0.107843,0.717902 0.215819,1.458646 0.323546,2.222856 l -3.323235,-0.004 c 0.112028,-0.763938 0.224174,-1.504409 0.336077,-2.222038 0.130202,-0.717609 0.26025,-1.423896 0.390391,-2.118348 l 0.445091,-2.153063 c 0.166889,-0.740717 0.343175,-1.515992 0.528579,-2.326146 z m 2.43274,17.978315 -0.36418,0.182153 -0.02494,8.846314 0.363666,4.51e-4 0.01416,-5.015903 c 0.03225,-0.0434 0.08417,-0.0869 0.154358,-0.130242 0.07314,-0.05202 0.147087,-0.07807 0.223007,-0.07798 0.181028,2.25e-4 0.306266,0.157245 0.37545,0.470029 0.06921,0.304097 0.102496,0.829207 0.100404,1.576204 l -0.0089,3.178963 0.3593,4.46e-4 0.0097,-3.413019 c 0.0012,-0.408241 -0.01078,-0.782265 -0.03616,-1.121055 -0.02532,-0.338786 -0.06796,-0.629336 -0.128596,-0.872619 -0.06063,-0.243291 -0.14377,-0.430762 -0.248508,-0.561177 -0.1018,-0.139104 -0.230184,-0.208256 -0.384922,-0.208448 -0.07006,-8.7e-5 -0.141107,0.02161 -0.214233,0.06495 -0.07308,0.03466 -0.139522,0.08614 -0.198104,0.155551 z m 37.225046,0.0462 -0.36419,0.182154 -0.0249,8.846313 0.36367,4.52e-4 0.0142,-5.015904 c 0.0323,-0.0434 0.0831,-0.0869 0.15326,-0.130241 0.0731,-0.05202 0.14819,-0.07808 0.22411,-0.07798 0.18102,2.27e-4 0.30626,0.157246 0.37544,0.470029 0.0692,0.304099 0.1025,0.829208 0.10041,1.576206 l -0.009,3.178962 0.3593,4.45e-4 0.01,-3.413018 c 0.001,-0.408241 -0.0108,-0.782265 -0.0362,-1.121054 -0.0253,-0.338787 -0.0691,-0.629337 -0.12967,-0.872622 -0.0606,-0.24329 -0.1427,-0.43076 -0.24742,-0.561175 -0.1018,-0.139103 -0.23019,-0.208255 -0.38492,-0.208448 -0.0701,-8.6e-5 -0.14221,0.02161 -0.21533,0.06495 -0.0731,0.03466 -0.13842,0.08616 -0.19702,0.155552 z M 46.470744,52.54766 c -0.154738,-1.93e-4 -0.300959,0.0904 -0.4387,0.272642 -0.137725,0.182236 -0.257293,0.45152 -0.360483,0.80752 -0.103194,0.356001 -0.186649,0.794542 -0.24943,1.315627 -0.05987,0.521089 -0.09054,1.125277 -0.09248,1.811474 -0.002,0.720938 0.02373,1.346258 0.07771,1.876176 0.05689,0.52992 0.134978,0.968662 0.233275,1.316226 0.09831,0.338877 0.213495,0.594657 0.347303,0.768543 0.136754,0.165205 0.285388,0.24818 0.445968,0.248381 0.131385,1.62e-4 0.254288,-0.04326 0.3684,-0.129975 0.117015,-0.07803 0.227109,-0.203533 0.329785,-0.377127 l -0.0936,-0.886343 c -0.09973,0.164914 -0.196772,0.282442 -0.290397,0.351811 -0.0936,0.06068 -0.183141,0.09108 -0.26782,0.09098 -0.113866,-1.4e-4 -0.219437,-0.06564 -0.318339,-0.196046 -0.09599,-0.130409 -0.179105,-0.330228 -0.248399,-0.59958 -0.06932,-0.269355 -0.123418,-0.608572 -0.163128,-1.016865 -0.03679,-0.40829 -0.05427,-0.889808 -0.05271,-1.445713 0.0014,-0.495104 0.02008,-0.942439 0.05621,-1.341954 0.03908,-0.399509 0.0922,-0.742952 0.16017,-1.029508 0.06796,-0.286555 0.149349,-0.503599 0.243189,-0.651144 0.09679,-0.15623 0.204211,-0.23453 0.323919,-0.23438 0.169341,2.09e-4 0.350702,0.166015 0.542466,0.496323 l 0.107336,-0.886096 c -0.107463,-0.199907 -0.218254,-0.343113 -0.331875,-0.43012 -0.110696,-0.08701 -0.220334,-0.130704 -0.328353,-0.130845 z m 26.276821,0.03261 c -0.154738,-1.91e-4 -0.30096,0.0904 -0.438698,0.272642 -0.137726,0.182237 -0.258386,0.45152 -0.361578,0.80752 -0.103194,0.356001 -0.185551,0.794543 -0.248338,1.315628 -0.05987,0.52109 -0.09163,1.125276 -0.09356,1.811473 -0.002,0.720938 0.02481,1.346259 0.07881,1.876177 0.05689,0.52992 0.133901,0.968661 0.232181,1.316225 0.09831,0.338877 0.214577,0.594659 0.348398,0.768546 0.136753,0.165204 0.28539,0.248179 0.445965,0.248378 0.131386,1.63e-4 0.254293,-0.04326 0.368404,-0.129975 0.116994,-0.07803 0.226015,-0.203535 0.328691,-0.377128 l -0.0936,-0.886343 c -0.09973,0.164912 -0.195695,0.282443 -0.289305,0.351812 -0.0936,0.06068 -0.183141,0.09108 -0.26782,0.09098 -0.113866,-1.41e-4 -0.22053,-0.06564 -0.319432,-0.196047 -0.09599,-0.13041 -0.178006,-0.330227 -0.247308,-0.599579 -0.0693,-0.269355 -0.124497,-0.608574 -0.164227,-1.016867 -0.03681,-0.408289 -0.05429,-0.889807 -0.05271,-1.445713 0.0014,-0.495102 0.02008,-0.942438 0.05619,-1.341954 0.03907,-0.399509 0.0933,-0.74295 0.161268,-1.029506 0.06797,-0.286555 0.14825,-0.503601 0.242097,-0.651147 0.09679,-0.156228 0.20531,-0.234527 0.325013,-0.234377 0.169341,2.09e-4 0.34961,0.166014 0.541372,0.496322 l 0.107336,-0.886095 C 73.299258,52.941338 73.189557,52.798134 73.075936,52.711127 72.96524,52.624117 72.855605,52.580422 72.747584,52.580282 Z M 40.81647,52.723247 c 0.105603,0.860049 0.228913,1.702637 0.369646,2.527985 0.143643,0.825354 0.303172,1.672343 0.478818,2.541164 l -0.0085,2.996355 0.359296,4.46e-4 0.0085,-3.022441 c 0.177689,-0.894443 0.339105,-1.74539 0.484443,-2.553011 0.145334,-0.807625 0.274807,-1.636824 0.388156,-2.487917 l -0.394246,-4.88e-4 c -0.08663,0.694776 -0.182719,1.376591 -0.28971,2.045284 -0.104061,0.660012 -0.224466,1.3585 -0.360843,2.096648 -0.123545,-0.703725 -0.240072,-1.385804 -0.34916,-2.046079 -0.106132,-0.668959 -0.200872,-1.367715 -0.283493,-2.097447 z m 3.01308,0.0038 c -0.08939,0.642656 -0.173884,1.32013 -0.254726,2.032285 -0.08081,0.703469 -0.159218,1.40637 -0.234197,2.109846 -0.07204,0.70348 -0.139184,1.389691 -0.202372,2.058437 -0.06319,0.668748 -0.121094,1.289606 -0.172342,1.862822 l 0.368034,4.57e-4 0.164311,-2.109932 1.041855,0.0013 0.155689,2.110329 0.381142,4.73e-4 c -0.04801,-0.573338 -0.101313,-1.194336 -0.16074,-1.863236 -0.05943,-0.668898 -0.123778,-1.355271 -0.19187,-2.058924 -0.06517,-0.703651 -0.135633,-1.406738 -0.21247,-2.110402 -0.0739,-0.712349 -0.152751,-1.390024 -0.235621,-2.032894 z m 3.696731,0.0046 -0.02274,8.064434 0.359298,4.46e-4 0.01057,-3.752145 1.076803,0.0013 -0.01057,3.752144 0.359298,4.47e-4 0.02274,-8.064434 -0.3593,-4.46e-4 -0.0095,3.399974 -1.076803,-0.0013 0.0095,-3.399976 z m 2.163435,0.0026 -0.0025,0.911587 0.744808,9e-4 -0.02008,7.152845 0.358207,4.45e-4 0.02008,-7.152846 0.744805,9e-4 0.0025,-0.911589 z m 5.089147,0.0063 c -0.08939,0.642656 -0.174984,1.320128 -0.255818,2.032283 -0.08081,0.703469 -0.159219,1.40637 -0.234198,2.109846 -0.07204,0.703482 -0.139184,1.389691 -0.202372,2.058438 -0.06321,0.668747 -0.119995,1.289606 -0.171243,1.862824 l 0.366941,4.54e-4 0.164312,-2.109932 1.041855,0.0013 0.156767,2.110331 0.380048,4.71e-4 c -0.04801,-0.573338 -0.101313,-1.194336 -0.16074,-1.863235 -0.05943,-0.668899 -0.122699,-1.35527 -0.19077,-2.058925 -0.06518,-0.703649 -0.136711,-1.406738 -0.21356,-2.110402 -0.0739,-0.712349 -0.151674,-1.390022 -0.234529,-2.032892 z m 32.162106,0.03993 -0.02274,8.064432 0.358208,4.46e-4 0.01057,-3.752146 1.077894,0.0013 -0.01057,3.752146 0.3593,4.47e-4 0.02274,-8.064434 -0.359298,-4.46e-4 -0.0095,3.399973 -1.077894,-0.0013 0.0095,-3.399974 z m 10.92201,0.0136 -0.0025,0.911588 0.743715,9e-4 -0.02008,7.152845 0.359296,4.46e-4 0.02008,-7.152846 0.744805,9e-4 0.0025,-0.911589 z m -36.332114,0.09765 -0.359813,0.18216 -0.0049,1.694192 -0.429192,-5.29e-4 -0.0025,0.898544 0.429192,5.3e-4 -0.008,2.814471 c -0.0011,0.408242 0.008,0.768469 0.02754,1.08119 0.01965,0.304036 0.05617,0.56044 0.108139,0.768971 0.05488,0.208529 0.12978,0.364763 0.225835,0.469121 0.09605,0.104355 0.220143,0.156794 0.371961,0.156982 0.131385,1.63e-4 0.241251,-0.04327 0.329087,-0.130031 0.09075,-0.08676 0.156154,-0.155669 0.197174,-0.207724 l -0.04985,-0.91238 c -0.05864,0.0868 -0.119678,0.156441 -0.18405,0.208469 -0.06437,0.05202 -0.149582,0.07808 -0.254678,0.07794 -0.07591,-9.4e-5 -0.139585,-0.02196 -0.192017,-0.06546 -0.05243,-0.0435 -0.09677,-0.121982 -0.13147,-0.234943 -0.03178,-0.121645 -0.05452,-0.277814 -0.06858,-0.468926 -0.01416,-0.191109 -0.0205,-0.438763 -0.01965,-0.742774 l 0.008,-2.814471 0.858382,0.0011 0.0025,-0.898543 -0.858382,-0.0011 z m 17.517153,0.02175 -0.358721,0.182162 -0.0049,1.694191 -0.429192,-5.29e-4 -0.0025,0.898543 0.429194,5.29e-4 -0.008,2.814474 c -0.0012,0.408242 0.008,0.768467 0.02754,1.081189 0.01965,0.304037 0.05507,0.56044 0.107041,0.76897 0.05488,0.208529 0.129779,0.364763 0.225832,0.46912 0.09605,0.104356 0.220144,0.156794 0.371961,0.156983 0.131386,1.63e-4 0.241254,-0.04327 0.329088,-0.130032 0.09075,-0.08676 0.157232,-0.155666 0.198251,-0.207722 l -0.05093,-0.912381 c -0.05862,0.08679 -0.119678,0.156441 -0.18405,0.208469 -0.06439,0.05202 -0.149581,0.07807 -0.254677,0.07794 -0.07591,-9.4e-5 -0.139586,-0.02195 -0.192017,-0.06546 -0.05241,-0.0435 -0.09565,-0.121983 -0.130393,-0.234941 -0.03178,-0.121646 -0.05562,-0.277816 -0.06965,-0.468928 -0.01395,-0.191109 -0.02071,-0.438763 -0.01965,-0.742773 l 0.008,-2.814474 0.858387,0.0011 0.0025,-0.898544 -0.858385,-0.0011 z M 44.03768,53.66505 c 0.06568,0.521245 0.134915,1.14662 0.208754,1.876339 0.0768,0.721036 0.148208,1.472778 0.213157,2.254605 l -0.875859,-0.0011 c 0.07223,-0.764282 0.148208,-1.507124 0.22907,-2.227967 0.08086,-0.720842 0.156175,-1.354753 0.224871,-1.901889 z m 10.948222,0.0136 c 0.06568,0.521244 0.135993,1.14662 0.209854,1.876341 0.0768,0.721035 0.14713,1.472777 0.212064,2.254603 l -0.875859,-0.0011 c 0.07223,-0.764283 0.149306,-1.507124 0.230162,-2.227966 0.08086,-0.720842 0.155098,-1.354755 0.223781,-1.90189 z m 4.376644,0.943835 c -0.131386,-1.63e-4 -0.25439,0.07739 -0.368696,0.2336 -0.111373,0.147523 -0.207593,0.360191 -0.290114,0.638043 -0.0825,0.269165 -0.148271,0.599518 -0.196096,0.990332 -0.04489,0.390816 -0.06786,0.825075 -0.06919,1.302808 -0.0013,0.47773 0.01923,0.912046 0.06186,1.302971 0.04565,0.382242 0.109555,0.712033 0.190517,0.990088 0.08096,0.278052 0.175956,0.495316 0.286476,0.651802 0.113444,0.147803 0.236032,0.222032 0.367411,0.222195 0.134303,1.66e-4 0.258744,-0.07376 0.373026,-0.221276 0.11431,-0.156206 0.213083,-0.37323 0.295611,-0.651079 0.08255,-0.277852 0.145756,-0.607485 0.190622,-0.989615 0.04783,-0.390814 0.07221,-0.825074 0.07357,-1.302803 0.0013,-0.477734 -0.0205,-0.912049 -0.06621,-1.302977 -0.04269,-0.390925 -0.104061,-0.721437 -0.185043,-0.990806 -0.08096,-0.278054 -0.178513,-0.49096 -0.291974,-0.638765 -0.113422,-0.156488 -0.237433,-0.234351 -0.371741,-0.234518 z m 6.612615,0.0083 c -0.119699,-1.48e-4 -0.235787,0.06435 -0.350018,0.194495 -0.114226,0.130143 -0.217293,0.326101 -0.308534,0.58657 -0.09125,0.260467 -0.165706,0.590085 -0.222301,0.989576 -0.0566,0.399487 -0.08544,0.868599 -0.08696,1.407132 -0.0013,0.451673 0.01923,0.872916 0.06196,1.263841 0.04271,0.382239 0.108076,0.712756 0.19487,0.990818 0.08682,0.278061 0.194849,0.498972 0.325758,0.664169 0.133858,0.156515 0.289393,0.235142 0.464569,0.235359 0.143051,1.77e-4 0.27066,-0.03888 0.384746,-0.11692 0.114099,-0.07803 0.193624,-0.151287 0.237606,-0.220718 l -0.04548,-0.912374 c -0.04692,0.06943 -0.116275,0.1347 -0.206958,0.195395 -0.09068,0.06069 -0.199414,0.09106 -0.327883,0.09089 -0.224806,-3.08e-4 -0.40039,-0.161747 -0.525028,-0.483287 -0.121706,-0.330221 -0.188445,-0.807441 -0.201273,-1.432853 l 1.453574,0.0018 0.0011,-0.378259 c 0.003,-1.033636 -0.06881,-1.802081 -0.216287,-2.306056 -0.147447,-0.51266 -0.358987,-0.769284 -0.633428,-0.769625 z m 10.966786,0.0136 c -0.283206,-3.52e-4 -0.49303,0.164244 -0.628258,0.494145 -0.132294,0.32122 -0.19861,0.724925 -0.199984,1.211342 -9.78e-4,0.347438 0.0272,0.62998 0.08498,0.847202 0.06069,0.217227 0.13407,0.399604 0.221245,0.547377 0.09009,0.147769 0.187896,0.273528 0.292706,0.377896 0.104843,0.09568 0.201274,0.196013 0.288561,0.300357 0.09022,0.104342 0.163741,0.225716 0.221758,0.364768 0.06091,0.139047 0.09083,0.317741 0.09024,0.534892 -0.0014,0.495103 -0.16689,0.742543 -0.496812,0.742133 -0.128469,-1.59e-4 -0.249677,-0.04387 -0.363299,-0.130886 -0.110675,-0.09569 -0.216104,-0.213463 -0.317897,-0.352568 l -0.07266,0.977442 c 0.104716,0.139103 0.214529,0.243097 0.331115,0.312729 0.116592,0.06963 0.245072,0.10465 0.385214,0.104832 0.309476,3.85e-4 0.536638,-0.146761 0.68053,-0.441907 0.143918,-0.303832 0.216105,-0.729317 0.217648,-1.276536 9.55e-4,-0.338754 -0.02868,-0.616939 -0.08939,-0.834166 -0.05776,-0.225908 -0.131111,-0.417 -0.221171,-0.57346 -0.09007,-0.156458 -0.187854,-0.2873 -0.292669,-0.391667 -0.104778,-0.113049 -0.202647,-0.221377 -0.292854,-0.325725 -0.09022,-0.104341 -0.165242,-0.217002 -0.226203,-0.338685 -0.05801,-0.130366 -0.08656,-0.287263 -0.08603,-0.469671 0.0014,-0.512475 0.159725,-0.76864 0.475042,-0.768247 0.05547,6.9e-5 0.111944,0.0088 0.170293,0.02629 0.06126,0.01744 0.117691,0.04367 0.170144,0.07847 0.05245,0.02613 0.09981,0.06104 0.140579,0.104524 0.04081,0.0348 0.07257,0.06969 0.09582,0.104468 l 0.06824,-0.964406 c -0.08445,-0.07827 -0.186797,-0.138683 -0.306367,-0.182263 -0.116635,-0.05224 -0.229561,-0.07854 -0.34051,-0.07869 z m 4.318132,0.0054 c -0.131386,-1.63e-4 -0.25439,0.07739 -0.368696,0.2336 -0.111352,0.147526 -0.20867,0.360191 -0.291204,0.638041 -0.0825,0.269165 -0.147173,0.599522 -0.194997,0.990335 -0.04491,0.390816 -0.06894,0.825074 -0.07029,1.302806 -0.0013,0.477731 0.02029,0.912047 0.06294,1.302973 0.04563,0.382241 0.108435,0.712031 0.189418,0.990085 0.08096,0.278053 0.177055,0.495319 0.287567,0.651805 0.113444,0.147802 0.236032,0.222031 0.367411,0.222194 0.134302,1.66e-4 0.257653,-0.07376 0.371936,-0.221277 0.11431,-0.156207 0.213081,-0.373231 0.295608,-0.65108 0.08253,-0.27785 0.145757,-0.607485 0.190623,-0.989613 0.04782,-0.390816 0.07331,-0.825073 0.07466,-1.302803 0.0013,-0.477731 -0.0217,-0.912049 -0.06731,-1.302977 -0.04269,-0.390925 -0.104039,-0.721437 -0.185043,-0.990806 -0.08096,-0.278054 -0.178513,-0.490962 -0.291972,-0.638765 -0.113422,-0.15649 -0.236357,-0.234351 -0.37065,-0.234518 z m 10.974432,0.0136 c -0.148906,-1.85e-4 -0.282052,0.07736 -0.399274,0.23356 -0.117184,0.147518 -0.217388,0.355821 -0.299905,0.624988 -0.07957,0.269168 -0.141339,0.590811 -0.186184,0.964259 -0.04191,0.364761 -0.06332,0.768521 -0.06458,1.21151 -0.0014,0.503788 0.01902,0.942459 0.06181,1.316013 0.04569,0.36487 0.105667,0.669237 0.180901,0.912539 0.07817,0.234619 0.168581,0.412658 0.270424,0.534391 0.1048,0.11305 0.217282,0.169835 0.336981,0.169984 0.110929,1.37e-4 0.208121,-0.03896 0.293009,-0.117033 0.08487,-0.07808 0.148483,-0.152076 0.189566,-0.221503 l -5.9e-4,0.208696 c -0.0016,0.564591 -0.04875,0.972677 -0.139965,1.224458 -0.09121,0.251783 -0.24189,0.377236 -0.452101,0.376975 -0.116783,-1.44e-4 -0.223903,-0.03005 -0.323001,-0.09098 -0.09618,-0.06093 -0.182529,-0.139469 -0.258165,-0.235103 l -0.0682,0.950637 c 0.08151,0.08696 0.175111,0.161153 0.280044,0.222086 0.107864,0.06094 0.22657,0.09158 0.357947,0.09175 0.321152,3.98e-4 0.561525,-0.207731 0.720358,-0.624465 0.161755,-0.416729 0.244439,-1.094204 0.247085,-2.032295 l 0.01522,-5.394163 c -0.08447,-0.06959 -0.189672,-0.138725 -0.315028,-0.208361 -0.122404,-0.07833 -0.271162,-0.117733 -0.446333,-0.117944 z m 2.163433,0.0026 c -0.131386,-1.65e-4 -0.25439,0.07739 -0.368696,0.233599 -0.111351,0.147524 -0.20867,0.360189 -0.291204,0.638041 -0.0825,0.269165 -0.147173,0.59952 -0.194997,0.990333 -0.04491,0.390817 -0.06786,0.825075 -0.06919,1.302808 -0.0013,0.477731 0.01923,0.912046 0.06186,1.302972 0.04563,0.382242 0.108435,0.712032 0.189418,0.990086 0.08096,0.278053 0.177055,0.495317 0.287567,0.651803 0.113444,0.147805 0.236032,0.222031 0.367411,0.222196 0.134303,1.66e-4 0.258744,-0.07376 0.373026,-0.221276 0.11431,-0.156206 0.211991,-0.373231 0.294518,-0.651081 0.08253,-0.277852 0.146856,-0.607484 0.191722,-0.989614 0.04782,-0.390813 0.07221,-0.825072 0.07357,-1.302803 0.0013,-0.477733 -0.0205,-0.912048 -0.06621,-1.302976 -0.04271,-0.390925 -0.105159,-0.721438 -0.186142,-0.990807 -0.08096,-0.278054 -0.177435,-0.49096 -0.290881,-0.638764 -0.113422,-0.15649 -0.237447,-0.234351 -0.371741,-0.234517 z m 8.802256,0.01094 c -0.1197,-1.48e-4 -0.23688,0.06435 -0.35111,0.194493 -0.11422,0.130143 -0.2162,0.326103 -0.30744,0.586572 -0.0913,0.260468 -0.1657,0.590085 -0.2223,0.989576 -0.0566,0.399487 -0.0854,0.868599 -0.087,1.407133 -10e-4,0.451672 0.0192,0.872916 0.062,1.26384 0.0427,0.382239 0.10808,0.712757 0.19487,0.990819 0.0868,0.27806 0.19485,0.498971 0.32576,0.664168 0.13386,0.156515 0.2883,0.23514 0.46347,0.235357 0.14308,1.78e-4 0.27176,-0.03888 0.38584,-0.116906 0.11408,-0.07803 0.19361,-0.151287 0.23761,-0.220718 l -0.0455,-0.912372 c -0.0469,0.06943 -0.11628,0.1347 -0.20696,0.195395 -0.0907,0.06069 -0.20051,0.09105 -0.32898,0.09089 -0.2248,-2.78e-4 -0.39929,-0.161718 -0.52393,-0.483256 -0.12171,-0.330221 -0.18845,-0.807443 -0.20128,-1.432853 l 1.45358,0.0018 0.001,-0.378259 c 0.003,-1.033635 -0.0688,-1.802081 -0.21628,-2.306056 -0.14745,-0.512661 -0.35899,-0.769284 -0.63343,-0.769624 z m 4.37929,0.0055 c -0.1197,-1.48e-4 -0.23688,0.06435 -0.35111,0.194491 -0.11422,0.130144 -0.2162,0.326104 -0.30744,0.586573 -0.0913,0.260467 -0.16571,0.590086 -0.2223,0.989575 -0.0566,0.399489 -0.0854,0.868601 -0.087,1.407132 -10e-4,0.451674 0.0192,0.872916 0.062,1.263841 0.0427,0.382241 0.10807,0.712757 0.19487,0.990818 0.0868,0.278062 0.19485,0.498972 0.32576,0.66417 0.13385,0.156515 0.28829,0.23514 0.46347,0.235357 0.14305,1.79e-4 0.27175,-0.03888 0.38584,-0.116919 0.11408,-0.07803 0.1936,-0.151287 0.23761,-0.220718 l -0.0455,-0.912373 c -0.0469,0.06943 -0.11628,0.1347 -0.20696,0.195396 -0.0907,0.06068 -0.20051,0.09105 -0.32898,0.09089 -0.2248,-2.79e-4 -0.39929,-0.161719 -0.52393,-0.483258 -0.12171,-0.330221 -0.18845,-0.807441 -0.20127,-1.432852 l 1.45357,0.0018 10e-4,-0.378256 c 0.003,-1.033637 -0.0688,-1.802082 -0.21628,-2.306058 -0.14745,-0.512661 -0.35899,-0.769282 -0.63343,-0.769623 z m -50.428468,-0.04953 c -0.113867,-1.42e-4 -0.236731,0.02585 -0.368257,0.0778 -0.128617,0.05196 -0.258851,0.125151 -0.390499,0.22053 l -0.01648,5.876044 0.363666,4.52e-4 0.01437,-5.10721 c 0.06141,-0.03466 0.124877,-0.06073 0.189143,-0.07803 0.06723,-0.02599 0.129547,-0.03897 0.18796,-0.0389 0.07006,8.8e-5 0.133731,0.02633 0.191996,0.0785 0.06116,0.05219 0.112704,0.148117 0.153174,0.287147 0.04343,0.130339 0.07623,0.317026 0.0989,0.560265 0.02268,0.243236 0.03337,0.559889 0.03227,0.95076 l -0.0095,3.348526 0.359296,4.46e-4 0.0099,-3.543451 c 0.0025,-0.92072 -0.06615,-1.589668 -0.20512,-2.00677 -0.136035,-0.417098 -0.33938,-0.62578 -0.6109,-0.626118 z m 11.25073,0.01402 c -0.303637,-3.78e-4 -0.604697,0.151032 -0.903351,0.454673 l -0.01606,5.719524 0.359298,4.45e-4 0.01416,-5.015905 c 0.184345,-0.147433 0.365299,-0.221284 0.543394,-0.221063 0.08466,1.05e-4 0.161416,0.01332 0.231414,0.03942 0.07293,0.01747 0.156471,0.0655 0.249684,0.143786 l 0.0682,-0.950636 c -0.102011,-0.06962 -0.194596,-0.113302 -0.279209,-0.130788 -0.0846,-0.02617 -0.174033,-0.03934 -0.267451,-0.03945 z m 14.631846,0.01816 c -0.154738,-1.92e-4 -0.320911,0.0991 -0.496653,0.298656 l -0.01648,5.876045 0.32872,4.09e-4 0.01458,-5.172426 c 0.0732,-0.07808 0.139606,-0.117214 0.197998,-0.117144 0.09341,1.16e-4 0.155456,0.08735 0.187114,0.2611 0.03164,0.17376 0.0469,0.412711 0.04603,0.716723 l -0.0055,1.980419 0.328721,4.08e-4 0.0055,-1.967375 c 6.87e-4,-0.243211 -0.0074,-0.464722 -0.02434,-0.664523 0.03242,-0.112881 0.06741,-0.195633 0.105539,-0.247695 0.03808,-0.05207 0.07437,-0.07816 0.109429,-0.07812 0.07006,8.7e-5 0.128871,0.08294 0.175131,0.248041 0.04626,0.165095 0.06875,0.404052 0.06788,0.716748 l -0.01226,4.325332 0.328718,4.08e-4 0.01205,-4.299243 c 8.81e-4,-0.312697 -0.01289,-0.586505 -0.04138,-0.821062 -0.02853,-0.234561 -0.0682,-0.429967 -0.117395,-0.586377 -0.04628,-0.156409 -0.100996,-0.273403 -0.165009,-0.351651 -0.06108,-0.07824 -0.126166,-0.117551 -0.196244,-0.117635 -0.143051,-1.79e-4 -0.277865,0.151437 -0.404268,0.455291 -0.05211,-0.156423 -0.116634,-0.269071 -0.192355,-0.33864 -0.07276,-0.07826 -0.150892,-0.117579 -0.23556,-0.117692 z m 21.896442,0.02717 c -0.15474,-1.92e-4 -0.31982,0.0991 -0.49556,0.298657 l -0.0165,5.876045 0.32871,4.09e-4 0.0146,-5.172426 c 0.0732,-0.07808 0.1385,-0.117215 0.19689,-0.117144 0.0934,1.15e-4 0.15656,0.08735 0.1882,0.261102 0.0316,0.173761 0.0469,0.41271 0.046,0.716721 l -0.005,1.980421 0.32763,4.07e-4 0.005,-1.967377 c 6.9e-4,-0.24321 -0.007,-0.464721 -0.0243,-0.664521 0.0324,-0.112895 0.0685,-0.195634 0.10664,-0.247694 0.0381,-0.05206 0.0744,-0.07818 0.10943,-0.07812 0.07,8.6e-5 0.12777,0.08294 0.17403,0.24804 0.0463,0.165093 0.0687,0.404049 0.0679,0.716748 l -0.0123,4.325329 0.32872,4.08e-4 0.0121,-4.299242 c 8.8e-4,-0.312697 -0.0129,-0.586504 -0.0414,-0.821063 -0.0285,-0.234559 -0.0671,-0.429965 -0.1163,-0.586375 -0.0463,-0.156409 -0.10209,-0.273403 -0.16611,-0.351653 -0.0611,-0.07824 -0.12618,-0.117551 -0.19624,-0.117635 -0.14305,-1.76e-4 -0.27786,0.151437 -0.40427,0.455293 -0.0521,-0.156424 -0.11553,-0.269071 -0.19125,-0.338641 -0.0728,-0.07826 -0.15197,-0.117578 -0.23666,-0.117691 z m -31.032158,0.09192 -0.0095,3.399977 c -0.0012,0.408243 0.01078,0.782269 0.03616,1.121056 0.02532,0.338785 0.0694,0.633692 0.132929,0.885668 0.06355,0.243288 0.146686,0.43439 0.248473,0.573495 0.10182,0.13041 0.229127,0.195936 0.383863,0.196128 0.175174,2.17e-4 0.32704,-0.03444 0.455697,-0.103781 0.131576,-0.06933 0.237167,-0.133831 0.316165,-0.194534 l 0.01648,-5.876045 -0.363668,-4.52e-4 -0.01437,5.10721 c -0.0089,0.0087 -0.02618,0.02174 -0.05254,0.03907 -0.02629,0.0087 -0.05674,0.02169 -0.09185,0.03901 -0.03506,0.0087 -0.07274,0.0173 -0.113655,0.02594 -0.03798,0.0087 -0.07564,0.01291 -0.113612,0.01291 -0.175174,-2.18e-4 -0.300419,-0.157237 -0.375448,-0.470029 -0.07211,-0.312786 -0.107928,-0.842257 -0.105815,-1.589255 l 0.0089,-3.165919 z m 15.32751,0.01903 -0.0095,3.399976 c -0.0012,0.408241 0.01078,0.782269 0.03616,1.121054 0.02532,0.338786 0.0694,0.633695 0.132929,0.885669 0.06355,0.243288 0.146686,0.43439 0.248472,0.573496 0.101821,0.130409 0.230222,0.195937 0.384958,0.196128 0.175174,2.18e-4 0.327038,-0.03443 0.455698,-0.10378 0.131576,-0.06933 0.237164,-0.133831 0.316163,-0.194535 l 0.01648,-5.876044 -0.363667,-4.52e-4 -0.01437,5.10721 c -0.0089,0.0087 -0.02623,0.02172 -0.05254,0.03907 -0.02629,0.0087 -0.05784,0.02169 -0.09294,0.03901 -0.03506,0.0087 -0.07274,0.0173 -0.113655,0.02594 -0.03796,0.0087 -0.07564,0.01291 -0.113612,0.01291 -0.175174,-2.18e-4 -0.300421,-0.157238 -0.375448,-0.470029 -0.07211,-0.312787 -0.106829,-0.842257 -0.104737,-1.589256 l 0.0089,-3.165919 z m -23.257171,0.739244 c 0.148905,1.85e-4 0.268361,0.152843 0.358013,0.456966 0.08967,0.295435 0.133456,0.699277 0.131998,1.211753 l -1.076803,-0.0013 c 0.0093,-0.208455 0.02876,-0.412501 0.05852,-0.612244 0.02976,-0.199742 0.06938,-0.37762 0.119446,-0.533907 0.05009,-0.156289 0.10947,-0.282579 0.176885,-0.37804 0.07033,-0.09547 0.147257,-0.143296 0.231928,-0.143191 z m 37.225039,0.0462 c 0.14891,1.84e-4 0.26837,0.152843 0.35802,0.456966 0.0897,0.295436 0.13343,0.699277 0.132,1.211753 l -1.07681,-0.0013 c 0.009,-0.208455 0.0287,-0.412502 0.0585,-0.612245 0.0298,-0.199741 0.0694,-0.37762 0.11945,-0.533907 0.0501,-0.156289 0.10947,-0.282579 0.17688,-0.37804 0.0703,-0.09546 0.14726,-0.143296 0.23193,-0.143191 z m 4.37929,0.0055 c 0.14891,1.85e-4 0.26836,0.152843 0.35801,0.456965 0.0897,0.295436 0.13346,0.699277 0.132,1.211753 l -1.0768,-0.0013 c 0.009,-0.208454 0.0288,-0.412501 0.0585,-0.612244 0.0298,-0.19974 0.0694,-0.37762 0.11945,-0.533906 0.0501,-0.156289 0.10947,-0.28258 0.17688,-0.37804 0.0703,-0.09547 0.14726,-0.143296 0.23193,-0.143191 z m -48.212686,-0.02072 c 0.169341,2.11e-4 0.303149,0.200092 0.401294,0.599771 0.09816,0.390993 0.145904,0.929917 0.14396,1.616114 -0.0019,0.677508 -0.05269,1.215589 -0.153069,1.615022 -0.100362,0.390747 -0.235302,0.586662 -0.404637,0.586451 -0.166403,-2.06e-4 -0.298791,-0.196452 -0.396957,-0.587447 -0.09521,-0.399675 -0.141509,-0.937874 -0.139607,-1.615385 0.0019,-0.686195 0.05127,-1.225 0.148715,-1.61575 0.100383,-0.399433 0.233887,-0.598984 0.400303,-0.598776 z m 21.897533,0.02717 c 0.169341,2.1e-4 0.302058,0.200092 0.400199,0.599769 0.09816,0.390994 0.147003,0.929919 0.145059,1.616115 -0.0019,0.677511 -0.05376,1.215588 -0.154167,1.615021 -0.100362,0.390749 -0.23421,0.586663 -0.403545,0.586454 -0.166404,-2.07e-4 -0.298791,-0.196452 -0.396957,-0.587448 -0.09523,-0.399673 -0.142608,-0.937876 -0.140706,-1.615385 0.0019,-0.686196 0.05235,-1.224999 0.149814,-1.615751 0.100383,-0.399431 0.233884,-0.598981 0.400303,-0.598775 z m 10.9788,0.0136 c 0.105096,1.3e-4 0.187643,0.01767 0.248849,0.05248 0.06122,0.02614 0.110041,0.05671 0.144995,0.09148 l -0.0099,3.531134 c -0.04992,0.104174 -0.116466,0.194872 -0.198442,0.272941 -0.07904,0.07807 -0.163191,0.117185 -0.253695,0.117073 -0.07006,-8.6e-5 -0.136246,-0.03503 -0.197385,-0.104594 -0.0611,-0.07824 -0.11581,-0.195243 -0.165009,-0.351652 -0.04622,-0.165094 -0.08331,-0.369211 -0.111858,-0.612456 -0.02559,-0.251929 -0.03776,-0.551877 -0.03677,-0.899319 0.0018,-0.634077 0.05102,-1.14238 0.148461,-1.524447 0.100341,-0.382061 0.243957,-0.572882 0.430809,-0.572651 z m 2.159065,0.0026 c 0.16932,2.11e-4 0.303151,0.200094 0.401294,0.599773 0.09816,0.390993 0.145904,0.929918 0.14396,1.616114 -0.0019,0.677509 -0.05268,1.21559 -0.153069,1.615021 -0.100362,0.390749 -0.235302,0.586663 -0.404637,0.586452 -0.166403,-2.06e-4 -0.298791,-0.196452 -0.396957,-0.587446 -0.09521,-0.399675 -0.141509,-0.937877 -0.139607,-1.615386 0.0019,-0.686196 0.05127,-1.225001 0.148715,-1.61575 0.100383,-0.399433 0.233887,-0.598983 0.400301,-0.598778 z" />
    </g>
  </g>
</svg>
